<svg width="1359" height="304" viewBox="0 0 1359 304" fill="none" xmlns="http://www.w3.org/2000/svg">
<path d="M621.571 3.25537C627.38 4.9988 663.34 23.5449 669.43 27.4301C665.898 29.7781 657.84 33.7661 653.774 35.8966C671.568 60.4478 680.71 86.0426 678.033 116.691C675.55 144.846 661.885 170.831 640.096 188.829C619.567 206.077 593.019 214.444 566.312 212.082C538.633 209.391 513.174 195.759 495.586 174.213C475.227 149.276 469.216 122.339 472.417 90.8918C474.522 78.9601 481.098 46.778 496.698 47.9835C500.6 48.2731 504.191 50.2191 506.565 53.3301C513.433 62.4381 504.666 71.9451 501.877 80.9323C500.148 86.5055 498.999 92.0081 498.363 97.795C495.926 118.974 502.261 140.228 515.895 156.615C528.791 172.37 547.383 182.395 567.629 184.513C587.743 186.41 607.788 180.242 623.358 167.365C639.73 153.821 650.001 134.285 651.88 113.117C654.078 88.5602 644.748 67.4373 629.298 49.1036L614.592 57.3668C614.871 43.5649 618.222 20.7504 619.621 6.52691C619.725 5.47441 620.811 4.06782 621.571 3.25537Z" fill="#025EEC"/>
<path d="M985.937 57.5425C996.22 56.6603 1011.13 56.9859 1021.62 57.1584C1041.06 57.478 1067.69 53.448 1081.95 69.0113C1094.06 82.2281 1094.63 110.14 1084.7 124.816C1078.45 134.154 1070.13 137.36 1059.72 139.419C1068.57 149.811 1084.56 167.396 1093.37 178.721C1093.35 179.237 1093.32 179.752 1093.3 180.267C1091 182.284 1067.5 182.963 1064.88 180.292C1052.92 168.054 1042.56 153.637 1031.54 140.357C1015.57 140.236 1017.28 137.979 1017.73 123.266C1021.16 112.773 1053.23 124.859 1062.01 114.823C1070.28 105.363 1069.41 80.7532 1053.95 79.7944C1037.06 78.7479 1019.15 79.2506 1002.13 79.2776C1001.69 111.064 1002.18 142.992 1002.26 174.783C1002.26 176.785 1001.43 178.56 1000.28 180.131C996.872 182.407 990.745 182.396 986.77 182.03C979.292 181.342 978.002 178.999 978.077 172.111C978.467 136.397 977.177 100.468 978.707 64.8366C978.835 61.8793 983.68 58.9048 985.937 57.5425Z" fill="#015FF8"/>
<path d="M875.155 57.5326C895.675 56.2092 916.69 57.2378 937.3 56.8132C941.08 56.7351 946.562 56.7877 949.352 59.7351C951.722 62.2392 951.175 66.6945 951.115 69.8836C951.062 72.2226 951.092 75.7185 949.075 77.3352C940.315 84.3636 884.5 73.3104 875.005 83.0696C869.155 89.0838 870.94 100.595 871.067 108.331L917.912 108.294C924.767 108.292 937.9 107.904 944.2 109.052C948.512 112.27 948.617 122.342 946.705 126.64C939.235 134.272 884.77 127.159 871.727 130.195L871.112 131.533C870.977 138.174 869.8 146.717 872.747 152.882C879.61 167.218 933.01 154.858 947.05 160.423C948.647 161.056 949.765 161.807 950.477 163.4C951.88 166.559 951.7 175.299 950.237 178.404C949.592 179.782 948.317 180.818 946.862 181.249C941.747 182.765 882.482 182.266 875.275 181.292C870.347 180.626 865.457 179.143 861.19 176.545C854.77 172.636 849.67 165.157 848.005 157.866C845.53 147.054 845.695 97.8999 847.33 86.1393C848.035 81.0823 849.437 75.6067 852.235 71.2737C857.492 63.1229 866.05 59.5453 875.155 57.5326Z" fill="#015FF8"/>
<path d="M743.027 57.5748C755.552 56.7601 770.485 57.2492 783.167 57.1194C790.87 57.0407 809.627 56.6168 816.535 58.1007C820.622 61.379 820.442 71.8058 818.837 76.1988C812.297 82.5139 764.957 77.838 753.482 79.2184C740.222 80.814 737.11 83.7097 738.212 98.0322C739.187 110.763 758.47 108.549 766.892 108.51C780.992 108.779 801.28 106.06 813.017 115.055C827.35 126.034 827.552 155.986 816.715 169.5C809.725 178.203 801.91 180.444 791.567 181.723C770.522 182.227 749.117 181.591 728.035 181.874C725.327 181.911 721.165 181.867 718.66 181.135C713.245 179.558 714.58 165.857 715.652 162.883C724.427 153.282 793.532 167.148 798.302 153.679C813.085 111.974 747.107 139.948 727.9 125.156C702.85 105.865 709.862 65.427 743.027 57.5748Z" fill="#015FF8"/>
<path d="M180.494 56.2161C185.906 56.0586 193.048 55.3054 197.809 57.5319C199.729 59.3189 200.441 61.2536 200.859 63.8162C201.788 69.5124 201.146 75.9377 201.073 81.7246C200.882 96.8873 199.216 126.697 201.673 140.365C202.726 146.222 205.256 151.963 210.332 155.371C218.647 160.954 250.031 160.843 260.125 158.823C265.764 157.695 271.075 155.144 274.172 150.103C284.395 133.468 273.215 67.7389 279.982 58.8545C281.144 57.3286 282.899 56.6437 284.736 56.3302C289.249 55.559 298.496 55.4172 302.222 57.9873C305.72 62.4966 304.397 78.4996 304.287 84.7028C304.179 152.284 315.737 184.951 231.44 182.229C163.336 185.386 175.233 133.281 174.731 85.8664C174.638 77.0892 171.07 59.1568 180.494 56.2161Z" fill="#11244D"/>
<path d="M1283.82 57.6093C1298.3 56.6385 1313.15 57.2912 1327.68 57.262C1332.99 57.2507 1352.31 55.6483 1355.48 59.1352C1357.84 61.7458 1357.26 68.5672 1357.12 71.9963C1357.02 74.5342 1356.3 76.9723 1353.96 78.3001C1343.83 84.0465 1292.55 73.4757 1282.48 83.4696C1277.29 88.6189 1278.87 101.626 1278.93 108.391L1324.93 108.287C1333.04 108.277 1341.06 108.175 1349.15 108.658C1356.45 109.095 1354.65 121.41 1353.95 126.571C1348.15 134.221 1287.3 126.653 1279.4 130.78L1279.02 132.986C1278.9 139.009 1277.91 146.601 1280.25 152.271C1286.49 167.45 1338.97 154.739 1353.3 160.705C1355.59 161.659 1357.48 163.422 1358.36 165.767C1359.81 169.658 1358.52 175.198 1356.58 178.787C1355.84 180.162 1354.71 180.886 1353.21 181.261C1347.57 182.666 1291.6 182.17 1284.43 181.354C1279.69 180.814 1274.92 179.755 1270.8 177.248C1263.37 172.738 1257.84 165.747 1255.95 157.189C1254.18 149.198 1254.21 94.0442 1255.57 84.9625C1256.25 80.1268 1257.95 75.4906 1260.56 71.3624C1266.27 62.505 1274.01 59.6258 1283.82 57.6093Z" fill="#015FF8"/>
<path d="M70.8112 55.3054C77.6339 54.9814 84.1147 55.5583 89.9624 59.433C92.5042 61.1171 94.5689 63.0166 96.2024 65.6062C103.15 76.6227 148.021 169.757 149.874 179.149C146.913 183.29 128.711 182.718 124.753 181.309C120.856 179.921 109.755 153.562 107.741 149.304L77.7194 85.4471L75.0704 84.5108C73.9252 84.7742 72.5857 84.8694 71.9737 86.1282C57.8722 115.134 44.6437 144.668 30.6284 173.742C28.1872 179.183 25.0882 182.921 18.4882 182.11C12.1514 181.333 4.37395 184.458 0.0111955 179.152C-0.483055 175.988 15.5392 143.847 18.0262 138.61L39.2039 94.0771C47.1292 77.4381 51.3712 59.8486 70.8112 55.3054Z" fill="#11244D"/>
<path d="M1107.95 57.4601C1114.35 57.229 1128.02 55.2936 1131.42 61.9094C1136.37 71.511 1140.64 81.7157 1145.04 91.6099C1154.62 113.382 1164.37 135.078 1174.28 156.697C1191.38 127.862 1201.84 88.3871 1219.84 59.4638C1221.56 56.6867 1239.3 55.5606 1242.14 59.7421C1242.81 65.238 1237.35 74.3685 1234.76 79.655C1226.36 98.5191 1217.82 117.313 1209.12 136.035C1204.01 147.137 1198.94 158.348 1193.65 169.357C1190.85 175.29 1187.51 179.358 1181.06 181.343C1172.35 184.022 1161.05 181.693 1156.68 172.962C1152.02 163.669 1147.87 154.063 1143.59 144.604L1118.6 89.3616C1114.84 81.0263 1110.06 71.3752 1106.46 62.9169C1105.55 60.7676 1106.9 59.1735 1107.95 57.4601Z" fill="#015FF8"/>
<path d="M335.138 56.2504C350.238 55.8926 438.251 54.9046 444.37 57.3622C445.529 57.8273 446.711 59.4507 447.11 60.5992C448.509 64.6307 448.284 72.8062 446.458 76.7109C441.447 81.6201 410.038 79.7777 401.004 79.7116L400.997 143.113C401.129 153.795 402.338 168.167 399.674 178.404C398.115 184.395 380.711 182.851 376.514 180.016C373.55 174.376 374.759 92.1362 374.77 79.5826C362.318 79.7664 342.187 81.3163 330.717 77.9547C329.297 77.5384 322.731 59.1274 335.138 56.2504Z" fill="#11244D"/>
<path d="M515.302 21.9185C521.341 20.5254 527.375 24.2575 528.827 30.2853C530.277 36.3122 526.603 42.3835 520.592 43.8921C514.499 45.421 508.328 41.685 506.858 35.5763C505.387 29.4668 509.181 23.3311 515.302 21.9185Z" fill="#0375FE"/>
<path d="M548.883 104.934C553.473 103.875 558.06 106.712 559.163 111.293C560.265 115.874 557.473 120.488 552.904 121.635C548.273 122.797 543.583 119.958 542.465 115.315C541.347 110.671 544.231 106.008 548.883 104.934Z" fill="#0375FE"/>
<path d="M578.514 0.210199C584.531 -0.971339 590.368 2.94761 591.554 8.96558C592.74 14.9828 588.828 20.8245 582.812 22.0165C576.79 23.2101 570.941 19.2904 569.753 13.2649C568.565 7.23942 572.489 1.39249 578.514 0.210199Z" fill="#0375FE"/>
<path d="M596.928 104.872C601.502 103.974 605.938 106.953 606.839 111.527C607.741 116.1 604.767 120.54 600.195 121.446C595.618 122.353 591.172 119.374 590.269 114.794C589.366 110.215 592.349 105.771 596.928 104.872Z" fill="#0375FE"/>
<path d="M543.727 5.3935C549.403 3.31324 555.698 6.1767 557.86 11.8233C560.022 17.47 557.252 23.8067 551.638 26.052C547.934 27.5336 543.719 26.905 540.608 24.4062C537.497 21.908 535.973 17.9268 536.618 13.9891C537.264 10.0514 539.981 6.76633 543.727 5.3935Z" fill="#0375FE"/>
<path d="M570.487 105.228C574.802 103.647 579.586 105.823 581.229 110.115C582.873 114.407 580.767 119.223 576.5 120.929C573.685 122.055 570.481 121.578 568.117 119.678C565.752 117.78 564.594 114.754 565.085 111.761C565.575 108.768 567.64 106.271 570.487 105.228Z" fill="#0375FE"/>
<path d="M399.169 303.661C395.772 303.661 392.673 302.873 389.872 301.298C387.071 299.687 384.847 297.464 383.202 294.627C381.591 291.756 380.786 288.535 380.786 284.963C380.786 281.392 381.591 278.188 383.202 275.352C384.847 272.48 387.071 270.257 389.872 268.681C392.673 267.07 395.772 266.265 399.169 266.265C402.6 266.265 405.716 267.07 408.518 268.681C411.319 270.257 413.525 272.463 415.135 275.299C416.746 278.135 417.551 281.357 417.551 284.963C417.551 288.57 416.746 291.791 415.135 294.627C413.525 297.464 411.319 299.687 408.518 301.298C405.716 302.873 402.6 303.661 399.169 303.661ZM399.169 299.512C401.725 299.512 404.018 298.917 406.049 297.726C408.115 296.536 409.726 294.837 410.881 292.631C412.072 290.426 412.667 287.869 412.667 284.963C412.667 282.022 412.072 279.466 410.881 277.295C409.726 275.089 408.132 273.391 406.102 272.2C404.071 271.01 401.76 270.414 399.169 270.414C396.577 270.414 394.266 271.01 392.236 272.2C390.205 273.391 388.594 275.089 387.403 277.295C386.248 279.466 385.67 282.022 385.67 284.963C385.67 287.869 386.248 290.426 387.403 292.631C388.594 294.837 390.205 296.536 392.236 297.726C394.301 298.917 396.612 299.512 399.169 299.512Z" fill="#11244D"/>
<path d="M449.44 303.294L440.721 288.325H434.943V303.294H430.164V266.685H441.981C444.748 266.685 447.076 267.158 448.967 268.103C450.893 269.049 452.328 270.327 453.274 271.938C454.219 273.548 454.692 275.387 454.692 277.452C454.692 279.974 453.957 282.197 452.486 284.123C451.05 286.049 448.879 287.327 445.973 287.957L455.165 303.294H449.44ZM434.943 284.49H441.981C444.573 284.49 446.516 283.86 447.811 282.6C449.107 281.304 449.755 279.588 449.755 277.452C449.755 275.282 449.107 273.601 447.811 272.41C446.551 271.22 444.608 270.625 441.981 270.625H434.943V284.49Z" fill="#11244D"/>
<path d="M479.819 266.685C483.81 266.685 487.259 267.438 490.166 268.944C493.107 270.414 495.348 272.533 496.888 275.299C498.464 278.065 499.252 281.322 499.252 285.068C499.252 288.815 498.464 292.071 496.888 294.837C495.348 297.569 493.107 299.669 490.166 301.14C487.259 302.576 483.81 303.294 479.819 303.294H468.421V266.685H479.819ZM479.819 299.354C484.546 299.354 488.152 298.111 490.638 295.625C493.124 293.104 494.367 289.585 494.367 285.068C494.367 280.516 493.107 276.962 490.586 274.406C488.1 271.85 484.511 270.572 479.819 270.572H473.201V299.354H479.819Z" fill="#11244D"/>
<path d="M516.639 270.572V282.81H529.979V286.749H516.639V299.354H531.555V303.294H511.859V266.633H531.555V270.572H516.639Z" fill="#11244D"/>
<path d="M564.366 303.294L555.647 288.325H549.869V303.294H545.09V266.685H556.907C559.674 266.685 562.002 267.158 563.893 268.103C565.819 269.049 567.254 270.327 568.2 271.938C569.145 273.548 569.618 275.387 569.618 277.452C569.618 279.974 568.883 282.197 567.412 284.123C565.976 286.049 563.805 287.327 560.899 287.957L570.091 303.294H564.366ZM549.869 284.49H556.907C559.498 284.49 561.442 283.86 562.737 282.6C564.033 281.304 564.681 279.588 564.681 277.452C564.681 275.282 564.033 273.601 562.737 272.41C561.477 271.22 559.533 270.625 556.907 270.625H549.869V284.49Z" fill="#11244D"/>
<path d="M625.481 303.609C624.571 303.609 623.8 303.294 623.17 302.663C622.54 302.033 622.225 301.263 622.225 300.352C622.225 299.442 622.54 298.672 623.17 298.041C623.8 297.411 624.571 297.096 625.481 297.096C626.356 297.096 627.092 297.411 627.687 298.041C628.317 298.672 628.632 299.442 628.632 300.352C628.632 301.263 628.317 302.033 627.687 302.663C627.092 303.294 626.356 303.609 625.481 303.609Z" fill="#11244D"/>
<path d="M706.374 277.4C706.374 280.446 705.324 282.985 703.223 285.016C701.157 287.012 697.988 288.009 693.716 288.009H686.678V303.294H681.899V266.685H693.716C697.848 266.685 700.982 267.683 703.118 269.679C705.289 271.675 706.374 274.249 706.374 277.4ZM693.716 284.07C696.378 284.07 698.338 283.493 699.599 282.337C700.859 281.182 701.49 279.536 701.49 277.4C701.49 272.883 698.899 270.625 693.716 270.625H686.678V284.07H693.716Z" fill="#11244D"/>
<path d="M740.257 295.153H724.29L721.349 303.294H716.306L729.542 266.895H735.057L748.24 303.294H743.198L740.257 295.153ZM738.891 291.266L732.273 272.778L725.655 291.266H738.891Z" fill="#11244D"/>
<path d="M785.942 266.685L774.02 289.48V303.294H769.24V289.48L757.265 266.685H762.57L771.604 285.226L780.638 266.685H785.942Z" fill="#11244D"/>
<path d="M839.42 303.609C838.51 303.609 837.739 303.294 837.109 302.663C836.479 302.033 836.164 301.263 836.164 300.352C836.164 299.442 836.479 298.672 837.109 298.041C837.739 297.411 838.51 297.096 839.42 297.096C840.296 297.096 841.031 297.411 841.626 298.041C842.256 298.672 842.572 299.442 842.572 300.352C842.572 301.263 842.256 302.033 841.626 302.663C841.031 303.294 840.296 303.609 839.42 303.609Z" fill="#11244D"/>
<path d="M923.57 277.295C922.555 275.159 921.084 273.513 919.158 272.358C917.232 271.167 914.991 270.572 912.435 270.572C909.879 270.572 907.568 271.167 905.502 272.358C903.471 273.513 901.861 275.194 900.67 277.4C899.515 279.571 898.937 282.092 898.937 284.963C898.937 287.834 899.515 290.355 900.67 292.526C901.861 294.697 903.471 296.378 905.502 297.569C907.568 298.724 909.879 299.302 912.435 299.302C916.007 299.302 918.948 298.234 921.259 296.098C923.57 293.962 924.918 291.073 925.303 287.432H910.702V283.545H930.398V287.222C930.118 290.233 929.172 292.999 927.562 295.52C925.951 298.006 923.833 299.985 921.206 301.455C918.58 302.891 915.657 303.609 912.435 303.609C909.039 303.609 905.94 302.821 903.139 301.245C900.337 299.634 898.114 297.411 896.468 294.575C894.858 291.739 894.052 288.535 894.052 284.963C894.052 281.392 894.858 278.188 896.468 275.352C898.114 272.48 900.337 270.257 903.139 268.681C905.94 267.07 909.039 266.265 912.435 266.265C916.322 266.265 919.753 267.228 922.73 269.154C925.741 271.08 927.929 273.793 929.295 277.295H923.57Z" fill="#11244D"/>
<path d="M959.617 303.661C956.221 303.661 953.122 302.873 950.321 301.298C947.52 299.687 945.296 297.464 943.65 294.627C942.04 291.756 941.234 288.535 941.234 284.963C941.234 281.392 942.04 278.188 943.65 275.352C945.296 272.48 947.52 270.257 950.321 268.681C953.122 267.07 956.221 266.265 959.617 266.265C963.049 266.265 966.165 267.07 968.966 268.681C971.767 270.257 973.973 272.463 975.584 275.299C977.195 278.135 978 281.357 978 284.963C978 288.57 977.195 291.791 975.584 294.627C973.973 297.464 971.767 299.687 968.966 301.298C966.165 302.873 963.049 303.661 959.617 303.661ZM959.617 299.512C962.173 299.512 964.467 298.917 966.498 297.726C968.564 296.536 970.174 294.837 971.33 292.631C972.52 290.426 973.116 287.869 973.116 284.963C973.116 282.022 972.52 279.466 971.33 277.295C970.174 275.089 968.581 273.391 966.55 272.2C964.519 271.01 962.208 270.414 959.617 270.414C957.026 270.414 954.715 271.01 952.684 272.2C950.653 273.391 949.043 275.089 947.852 277.295C946.697 279.466 946.119 282.022 946.119 284.963C946.119 287.869 946.697 290.426 947.852 292.631C949.043 294.837 950.653 296.536 952.684 297.726C954.75 298.917 957.061 299.512 959.617 299.512Z" fill="#11244D"/>
</svg>
